<svg id="svg" xmlns="http://www.w3.org/2000/svg" xmlns:xlink="http://www.w3.org/1999/xlink" width="400" height="411.62115049389894" viewBox="0, 0, 400,411.62115049389894"><g id="svgg"><path id="path0" d="M197.282 0.112 C 197.243 0.145,196.479 0.237,195.584 0.316 C 194.689 0.395,193.735 0.504,193.464 0.559 C 193.192 0.614,192.617 0.719,192.185 0.792 C 190.402 1.092,189.948 1.191,188.727 1.544 C 187.211 1.982,185.539 2.530,184.893 2.800 C 180.498 4.635,178.541 5.655,175.620 7.626 C 171.818 10.193,168.098 13.700,165.812 16.874 C 165.569 17.213,165.140 17.772,164.861 18.116 C 162.960 20.457,160.064 26.179,158.761 30.165 C 152.282 49.996,161.622 72.704,180.094 82.028 L 181.522 82.749 181.522 92.973 L 181.522 103.196 168.332 103.216 C 161.078 103.227,154.672 103.265,154.096 103.301 C 152.720 103.388,150.018 103.667,149.386 103.789 C 149.111 103.842,148.465 103.948,147.951 104.025 C 147.438 104.101,146.961 104.199,146.891 104.242 C 146.822 104.285,146.300 104.389,145.731 104.474 C 145.162 104.559,144.275 104.775,143.760 104.955 C 143.245 105.134,142.680 105.282,142.505 105.284 C 141.827 105.291,135.050 108.171,133.062 109.297 C 127.868 112.238,122.962 116.192,119.868 119.930 C 119.392 120.506,118.737 121.290,118.412 121.673 C 116.930 123.421,114.083 127.951,112.861 130.506 C 110.086 136.306,108.683 141.270,108.088 147.388 C 107.875 149.588,107.920 155.886,108.157 157.002 C 108.211 157.257,108.328 158.094,108.416 158.861 C 109.037 164.292,111.579 171.619,114.464 176.293 C 114.780 176.804,115.240 177.589,115.486 178.036 C 115.732 178.483,116.231 179.230,116.595 179.695 C 116.959 180.160,117.414 180.773,117.606 181.058 C 119.598 184.014,123.572 187.962,127.484 190.872 C 127.612 190.967,128.032 191.297,128.418 191.605 C 130.314 193.118,136.032 196.221,138.757 197.216 C 147.065 200.249,149.944 200.581,167.950 200.581 L 181.522 200.581 181.522 216.153 L 181.522 231.726 165.427 231.756 C 145.438 231.793,146.677 231.740,143.754 232.686 C 142.987 232.934,141.993 233.196,141.546 233.268 C 141.098 233.340,140.556 233.493,140.341 233.608 C 140.125 233.723,139.773 233.818,139.557 233.818 C 138.831 233.818,132.151 236.632,130.041 237.827 C 124.847 240.768,119.941 244.722,116.847 248.460 C 116.371 249.035,115.715 249.820,115.390 250.203 C 113.908 251.951,111.061 256.481,109.839 259.035 C 107.065 264.836,105.662 269.799,105.067 275.918 C 104.853 278.118,104.898 284.416,105.136 285.532 C 105.190 285.787,105.306 286.624,105.394 287.391 C 106.016 292.822,108.558 300.149,111.443 304.823 C 111.759 305.334,112.218 306.119,112.464 306.566 C 112.710 307.013,113.209 307.760,113.574 308.225 C 113.938 308.690,114.393 309.303,114.585 309.587 C 116.577 312.544,120.550 316.492,124.463 319.402 C 124.590 319.497,125.011 319.827,125.397 320.135 C 127.288 321.644,132.987 324.739,135.735 325.748 C 136.681 326.096,140.070 327.205,144.102 328.488 C 145.565 328.953,146.179 328.970,163.568 329.048 L 181.522 329.127 181.540 364.389 C 181.550 383.783,181.596 399.861,181.643 400.116 C 181.690 400.372,181.795 400.941,181.877 401.382 C 182.876 406.760,190.921 411.424,199.303 411.483 C 202.498 411.506,204.821 411.300,205.872 410.901 C 206.222 410.768,206.508 410.681,206.508 410.709 C 206.508 410.838,209.370 409.905,210.489 409.410 C 213.385 408.129,216.441 405.302,217.635 402.801 L 218.361 401.278 218.424 365.267 C 218.459 345.461,218.511 329.232,218.541 329.203 C 218.570 329.174,221.627 329.108,225.334 329.057 C 232.816 328.954,233.720 328.818,236.723 327.344 C 247.868 321.874,249.023 306.157,238.792 299.174 C 236.508 297.615,231.953 295.919,230.625 296.133 C 230.528 296.149,227.754 296.150,224.463 296.134 L 218.478 296.107 218.478 280.535 L 218.478 264.962 235.503 264.933 C 244.866 264.916,252.737 264.878,252.992 264.847 C 255.665 264.527,256.960 264.151,259.500 262.962 C 260.267 262.602,261.054 262.282,261.249 262.250 C 262.426 262.057,267.593 259.675,269.727 258.343 C 270.238 258.023,270.866 257.669,271.121 257.554 C 271.504 257.383,273.430 256.030,274.375 255.268 C 274.503 255.164,275.078 254.716,275.654 254.271 C 281.637 249.643,287.781 241.546,290.208 235.091 C 290.351 234.710,290.690 233.859,290.961 233.199 C 291.403 232.123,291.741 231.018,292.409 228.472 C 299.626 200.965,281.390 172.910,253.297 168.300 C 249.204 167.628,248.250 167.595,232.597 167.586 L 218.478 167.577 218.478 152.005 L 218.478 136.432 249.216 136.403 C 266.121 136.386,280.163 136.348,280.418 136.317 C 284.959 135.773,287.534 134.544,290.650 131.435 C 299.683 122.423,296.033 108.225,283.556 103.843 L 282.045 103.312 250.259 103.248 L 218.473 103.185 218.533 92.945 L 218.594 82.706 220.549 81.680 C 221.624 81.116,222.679 80.497,222.892 80.304 C 223.105 80.111,223.382 79.954,223.507 79.954 C 223.633 79.954,223.940 79.770,224.190 79.547 C 224.440 79.323,225.025 78.877,225.490 78.556 C 232.881 73.451,239.086 64.438,241.809 54.852 C 242.158 53.623,242.260 53.150,242.559 51.365 C 242.634 50.918,242.728 50.500,242.767 50.435 C 243.182 49.757,243.371 41.651,243.044 38.582 C 240.906 18.512,224.514 2.301,204.299 0.264 C 202.317 0.064,197.462 -0.041,197.282 0.112 M9.495 9.087 C -2.412 12.178,-3.224 28.258,8.301 32.739 L 9.878 33.353 74.027 33.402 C 110.621 33.430,138.626 33.362,139.225 33.245 C 151.996 30.735,152.964 13.963,140.616 9.126 C 138.875 8.444,12.117 8.406,9.495 9.087 M260.047 9.784 C 248.140 12.875,247.328 28.955,258.853 33.437 L 260.430 34.050 324.579 34.099 C 361.173 34.127,389.178 34.060,389.777 33.942 C 402.548 31.433,403.516 14.660,391.168 9.823 C 389.427 9.141,262.669 9.103,260.047 9.784 M204.317 25.571 C 218.849 29.048,223.185 48.019,211.653 57.666 C 210.092 58.972,206.523 60.935,205.230 61.200 C 204.910 61.265,204.387 61.381,204.067 61.458 C 192.589 64.207,181.895 55.474,181.890 43.347 C 181.886 31.347,192.684 22.788,204.317 25.571 M260.047 42.788 C 248.140 45.882,247.328 61.959,258.853 66.441 L 260.430 67.054 293.318 67.103 C 311.771 67.131,326.666 67.062,327.255 66.946 C 340.027 64.433,340.994 47.664,328.646 42.827 C 326.910 42.147,262.654 42.110,260.047 42.788 M72.017 43.950 C 60.110 47.045,59.298 63.121,70.823 67.603 L 72.400 68.216 105.288 68.266 C 123.741 68.293,138.636 68.224,139.225 68.109 C 151.997 65.595,152.964 48.826,140.616 43.989 C 138.880 43.309,74.623 43.272,72.017 43.950 M169.146 136.406 L 181.522 136.432 181.522 152.005 L 181.522 167.577 168.565 167.576 C 161.248 167.575,155.004 167.476,154.222 167.347 C 139.924 165.006,136.012 146.493,148.170 138.703 C 150.475 137.226,153.639 136.232,155.723 136.330 C 156.299 136.357,162.339 136.391,169.146 136.406 M249.971 201.333 C 258.466 204.215,262.915 212.885,260.174 221.218 C 258.544 226.174,254.895 229.644,249.412 231.452 C 248.861 231.633,244.046 231.716,233.549 231.722 L 218.478 231.732 218.478 216.145 L 218.478 200.559 233.295 200.631 L 248.112 200.702 249.971 201.333 M181.522 280.535 L 181.522 296.107 167.054 296.106 C 149.760 296.104,148.584 295.971,145.088 293.618 C 134.095 286.221,136.201 269.577,148.635 265.581 L 150.494 264.984 166.008 264.973 L 181.522 264.962 181.522 280.535 " stroke="none" fill="#44d4ec" fill-rule="evenodd"></path><path id="path1" d="M195.874 0.164 C 196.162 0.219,196.633 0.219,196.920 0.164 C 197.208 0.109,196.973 0.063,196.397 0.063 C 195.822 0.063,195.587 0.109,195.874 0.164 M203.082 0.164 C 203.371 0.220,203.790 0.218,204.012 0.160 C 204.234 0.102,203.998 0.056,203.486 0.059 C 202.975 0.061,202.793 0.109,203.082 0.164 M193.518 0.423 C 193.453 0.527,193.709 0.568,194.085 0.513 C 194.462 0.457,194.770 0.372,194.770 0.322 C 194.770 0.145,193.633 0.236,193.518 0.423 M187.798 1.627 C 187.319 1.780,187.299 1.817,187.682 1.833 C 187.937 1.843,188.303 1.751,188.495 1.627 C 188.902 1.364,188.620 1.364,187.798 1.627 M185.938 2.208 C 185.491 2.380,185.282 2.525,185.474 2.528 C 185.665 2.532,186.136 2.392,186.519 2.216 C 187.417 1.805,187.000 1.799,185.938 2.208 M182.677 3.461 C 180.703 4.333,177.571 5.998,177.571 6.177 C 177.571 6.228,178.667 5.705,180.007 5.015 C 181.347 4.325,182.942 3.577,183.552 3.353 C 184.635 2.954,185.336 2.542,184.881 2.571 C 184.759 2.579,183.768 2.979,182.677 3.461 M222.196 6.102 C 222.196 6.203,222.664 6.531,224.579 7.774 C 224.930 8.002,225.218 8.138,225.218 8.076 C 225.218 7.975,224.750 7.646,222.836 6.404 C 222.484 6.176,222.196 6.040,222.196 6.102 M175.999 7.095 C 174.688 7.978,174.333 8.426,175.483 7.747 C 176.272 7.281,177.518 6.297,177.336 6.284 C 177.270 6.279,176.669 6.644,175.999 7.095 M225.450 8.209 C 225.450 8.267,226.209 8.924,227.135 9.668 C 228.062 10.412,228.690 10.857,228.530 10.658 C 228.189 10.232,225.450 8.055,225.450 8.209 M8.832 9.055 C 7.161 9.613,7.590 9.618,9.646 9.064 C 10.540 8.824,11.011 8.627,10.691 8.627 C 10.372 8.628,9.535 8.820,8.832 9.055 M172.335 9.896 L 171.180 10.959 172.400 9.976 C 173.494 9.093,173.758 8.832,173.556 8.832 C 173.520 8.832,172.971 9.311,172.335 9.896 M259.384 9.752 C 257.713 10.310,258.142 10.315,260.198 9.762 C 261.092 9.521,261.563 9.324,261.243 9.325 C 260.924 9.325,260.087 9.517,259.384 9.752 M6.450 10.010 C 5.970 10.263,5.578 10.522,5.578 10.586 C 5.578 10.649,5.997 10.487,6.508 10.227 C 7.019 9.966,7.438 9.702,7.438 9.641 C 7.438 9.489,7.436 9.489,6.450 10.010 M144.102 10.841 C 144.550 11.203,145.308 11.880,145.787 12.346 C 146.267 12.812,146.659 13.122,146.659 13.034 C 146.659 12.799,145.287 11.556,144.218 10.821 L 143.289 10.183 144.102 10.841 M257.002 10.707 C 256.522 10.960,256.130 11.219,256.130 11.283 C 256.130 11.346,256.549 11.185,257.060 10.924 C 257.571 10.663,257.990 10.399,257.990 10.338 C 257.990 10.186,257.988 10.187,257.002 10.707 M4.105 11.637 C 3.514 12.157,2.808 12.915,2.536 13.322 C 2.136 13.921,2.200 13.884,2.874 13.132 C 3.332 12.621,4.102 11.864,4.584 11.450 C 5.067 11.037,5.398 10.697,5.320 10.695 C 5.242 10.693,4.695 11.117,4.105 11.637 M168.940 12.967 C 166.614 15.411,165.353 16.967,165.698 16.967 C 165.837 16.967,165.950 16.888,165.951 16.793 C 165.952 16.493,167.581 14.607,169.893 12.230 C 170.592 11.512,171.101 10.924,171.024 10.924 C 170.947 10.924,170.009 11.843,168.940 12.967 M394.654 11.538 C 395.102 11.900,395.860 12.578,396.339 13.043 C 396.819 13.509,397.211 13.819,397.211 13.731 C 397.211 13.497,395.839 12.253,394.770 11.519 L 393.841 10.880 394.654 11.538 M230.510 12.725 C 231.243 13.460,231.888 14.033,231.945 13.998 C 232.083 13.911,229.580 11.389,229.356 11.389 C 229.258 11.389,229.777 11.990,230.510 12.725 M254.657 12.334 C 254.066 12.854,253.360 13.612,253.088 14.019 C 252.688 14.618,252.752 14.582,253.426 13.829 C 253.884 13.318,254.654 12.561,255.137 12.148 C 255.619 11.734,255.950 11.394,255.872 11.392 C 255.794 11.390,255.247 11.814,254.657 12.334 M164.755 17.955 C 164.379 18.491,164.344 18.614,164.635 18.381 C 165.050 18.048,165.594 17.199,165.393 17.199 C 165.333 17.199,165.046 17.539,164.755 17.955 M161.185 23.873 C 160.960 24.357,160.730 24.831,160.676 24.927 C 160.621 25.023,160.633 25.102,160.702 25.102 C 160.883 25.102,161.818 23.216,161.697 23.095 C 161.641 23.039,161.410 23.389,161.185 23.873 M197.850 25.262 C 198.074 25.320,198.440 25.320,198.664 25.262 C 198.887 25.203,198.704 25.156,198.257 25.156 C 197.809 25.156,197.626 25.203,197.850 25.262 M159.946 26.484 C 159.810 26.874,159.748 27.193,159.809 27.193 C 159.966 27.193,160.404 25.986,160.289 25.871 C 160.236 25.818,160.082 26.094,159.946 26.484 M146.703 28.672 C 146.186 29.358,145.232 30.308,144.584 30.784 C 143.341 31.696,143.052 32.046,143.928 31.579 C 144.605 31.218,147.197 28.626,147.559 27.949 C 148.021 27.082,147.698 27.355,146.703 28.672 M189.076 28.629 C 187.895 29.462,185.154 32.446,184.595 33.508 C 184.289 34.090,184.240 34.273,184.479 33.942 C 186.248 31.491,187.134 30.480,188.416 29.453 C 189.713 28.414,190.045 28.103,189.831 28.131 C 189.800 28.135,189.460 28.359,189.076 28.629 M210.691 28.697 C 211.075 29.011,211.487 29.272,211.608 29.277 C 211.729 29.282,211.473 29.024,211.040 28.704 C 210.027 27.957,209.782 27.952,210.691 28.697 M397.255 29.370 C 396.738 30.055,395.784 31.005,395.136 31.481 C 393.893 32.394,393.604 32.744,394.480 32.277 C 395.158 31.916,397.749 29.324,398.111 28.646 C 398.573 27.779,398.250 28.052,397.255 29.370 M2.789 28.997 C 2.789 29.264,4.093 30.466,5.230 31.247 L 6.159 31.886 5.346 31.230 C 4.898 30.870,4.140 30.176,3.661 29.688 C 3.181 29.200,2.789 28.889,2.789 28.997 M212.667 30.331 C 213.101 30.779,213.508 31.145,213.572 31.145 C 213.636 31.145,213.333 30.779,212.899 30.331 C 212.466 29.884,212.059 29.518,211.995 29.518 C 211.931 29.518,212.233 29.884,212.667 30.331 M253.341 29.695 C 253.341 29.962,254.645 31.163,255.782 31.944 L 256.711 32.583 255.898 31.928 C 255.450 31.567,254.692 30.873,254.213 30.385 C 253.733 29.897,253.341 29.587,253.341 29.695 M214.308 32.249 C 214.616 32.600,214.961 32.992,215.074 33.120 C 215.370 33.453,214.829 32.502,214.447 32.016 C 214.271 31.793,214.041 31.610,213.937 31.610 C 213.833 31.610,214.000 31.897,214.308 32.249 M182.238 38.735 C 182.101 39.226,181.999 39.785,182.009 39.977 C 182.020 40.169,182.171 39.806,182.345 39.171 C 182.519 38.537,182.622 37.978,182.574 37.929 C 182.526 37.881,182.374 38.243,182.238 38.735 M156.712 39.861 C 156.714 40.372,156.762 40.554,156.817 40.265 C 156.873 39.975,156.871 39.557,156.813 39.335 C 156.755 39.113,156.709 39.349,156.712 39.861 M243.168 39.744 C 243.168 40.192,243.216 40.375,243.275 40.151 C 243.333 39.927,243.333 39.561,243.275 39.338 C 243.216 39.114,243.168 39.297,243.168 39.744 M218.071 41.255 C 218.074 41.766,218.122 41.948,218.177 41.659 C 218.233 41.370,218.231 40.952,218.172 40.729 C 218.114 40.507,218.069 40.744,218.071 41.255 M181.809 41.604 C 181.809 42.051,181.857 42.234,181.915 42.010 C 181.973 41.787,181.973 41.421,181.915 41.197 C 181.857 40.973,181.809 41.156,181.809 41.604 M259.384 42.756 C 257.713 43.314,258.142 43.319,260.198 42.766 C 261.092 42.525,261.563 42.328,261.243 42.329 C 260.924 42.329,260.087 42.521,259.384 42.756 M257.002 43.711 C 256.522 43.964,256.130 44.223,256.130 44.287 C 256.130 44.350,256.549 44.189,257.060 43.928 C 257.571 43.667,257.990 43.403,257.990 43.342 C 257.990 43.190,257.988 43.191,257.002 43.711 M71.354 43.918 C 69.682 44.476,70.112 44.481,72.167 43.928 C 73.062 43.687,73.533 43.490,73.213 43.491 C 72.894 43.491,72.057 43.684,71.354 43.918 M332.132 44.542 C 332.580 44.904,333.338 45.582,333.818 46.048 C 334.297 46.514,334.689 46.823,334.689 46.735 C 334.689 46.501,333.317 45.257,332.249 44.523 L 331.319 43.884 332.132 44.542 M68.972 44.873 C 68.492 45.127,68.100 45.386,68.100 45.449 C 68.100 45.512,68.518 45.351,69.030 45.090 C 69.541 44.829,69.959 44.566,69.959 44.504 C 69.959 44.352,69.958 44.353,68.972 44.873 M254.657 45.338 C 254.066 45.858,253.360 46.616,253.088 47.023 C 252.688 47.622,252.752 47.586,253.426 46.833 C 253.884 46.322,254.654 45.565,255.137 45.152 C 255.619 44.738,255.950 44.398,255.872 44.396 C 255.794 44.394,255.247 44.818,254.657 45.338 M181.809 45.322 C 181.809 45.770,181.857 45.953,181.915 45.729 C 181.973 45.506,181.973 45.139,181.915 44.916 C 181.857 44.692,181.809 44.875,181.809 45.322 M144.102 45.704 C 144.550 46.066,145.308 46.744,145.787 47.210 C 146.267 47.676,146.659 47.985,146.659 47.897 C 146.659 47.663,145.287 46.419,144.218 45.685 L 143.289 45.046 144.102 45.704 M66.627 46.500 C 66.036 47.020,65.330 47.778,65.058 48.185 C 64.658 48.784,64.722 48.748,65.396 47.995 C 65.854 47.484,66.624 46.727,67.106 46.314 C 67.589 45.900,67.920 45.560,67.842 45.558 C 67.764 45.556,67.217 45.980,66.627 46.500 M156.716 46.949 C 156.716 47.525,156.762 47.760,156.817 47.472 C 156.873 47.185,156.873 46.714,156.817 46.426 C 156.762 46.139,156.716 46.374,156.716 46.949 M243.168 47.182 C 243.168 47.629,243.216 47.812,243.275 47.589 C 243.333 47.365,243.333 46.999,243.275 46.775 C 243.216 46.551,243.168 46.734,243.168 47.182 M157.401 51.830 C 157.399 52.150,157.480 52.673,157.583 52.992 C 157.833 53.774,157.833 52.930,157.583 51.947 C 157.423 51.320,157.405 51.308,157.401 51.830 M214.396 54.543 C 214.038 55.012,213.864 55.323,214.009 55.233 C 214.306 55.049,215.312 53.690,215.151 53.690 C 215.093 53.690,214.754 54.074,214.396 54.543 M241.632 55.209 C 241.553 55.417,241.496 55.762,241.507 55.975 C 241.518 56.188,241.620 56.054,241.732 55.677 C 241.951 54.943,241.874 54.580,241.632 55.209 M212.772 56.537 L 211.854 57.525 212.841 56.606 C 213.760 55.752,213.936 55.549,213.760 55.549 C 213.722 55.549,213.278 55.994,212.772 56.537 M187.101 56.595 C 187.534 57.042,187.941 57.408,188.005 57.408 C 188.069 57.408,187.767 57.042,187.333 56.595 C 186.899 56.148,186.492 55.782,186.428 55.782 C 186.364 55.782,186.667 56.148,187.101 56.595 M188.960 58.222 C 189.393 58.542,189.806 58.803,189.877 58.802 C 190.096 58.800,188.625 57.658,188.392 57.649 C 188.271 57.645,188.527 57.902,188.960 58.222 M209.994 58.713 C 209.318 59.236,207.382 60.205,206.043 60.690 C 205.404 60.921,205.075 61.114,205.311 61.119 C 205.876 61.130,209.366 59.477,210.110 58.846 C 210.779 58.279,210.689 58.175,209.994 58.713 M191.284 59.614 C 191.284 59.773,192.707 60.479,192.814 60.373 C 192.864 60.322,192.541 60.107,192.095 59.894 C 191.649 59.682,191.284 59.556,191.284 59.614 M334.734 62.374 C 334.216 63.059,333.262 64.009,332.614 64.485 C 331.371 65.398,331.082 65.748,331.958 65.281 C 332.636 64.920,335.228 62.328,335.589 61.650 C 336.051 60.783,335.728 61.056,334.734 62.374 M239.166 61.933 C 239.046 62.248,238.733 62.928,238.470 63.444 C 238.207 63.959,238.044 64.381,238.108 64.381 C 238.238 64.381,239.063 62.816,239.399 61.933 C 239.519 61.618,239.564 61.360,239.500 61.360 C 239.436 61.360,239.286 61.618,239.166 61.933 M201.569 61.752 C 201.793 61.811,202.159 61.811,202.382 61.752 C 202.606 61.694,202.423 61.646,201.976 61.646 C 201.528 61.646,201.345 61.694,201.569 61.752 M146.703 63.536 C 146.186 64.221,145.232 65.171,144.584 65.647 C 143.341 66.560,143.052 66.910,143.928 66.443 C 144.605 66.082,147.197 63.490,147.559 62.812 C 148.021 61.945,147.698 62.218,146.703 63.536 M253.341 62.699 C 253.341 62.966,254.645 64.168,255.782 64.948 L 256.711 65.587 255.898 64.932 C 255.450 64.571,254.692 63.877,254.213 63.389 C 253.733 62.901,253.341 62.591,253.341 62.699 M65.311 63.861 C 65.311 64.128,66.615 65.330,67.751 66.111 L 68.681 66.749 67.868 66.094 C 67.420 65.733,66.662 65.039,66.182 64.551 C 65.703 64.063,65.311 63.753,65.311 63.861 M163.763 67.461 C 164.235 68.196,164.665 68.797,164.718 68.797 C 164.874 68.797,164.033 67.450,163.446 66.760 C 163.149 66.410,163.292 66.726,163.763 67.461 M236.207 67.228 C 235.271 68.617,235.085 69.022,235.724 68.278 C 236.340 67.561,237.157 66.241,236.985 66.241 C 236.923 66.241,236.573 66.685,236.207 67.228 M233.800 70.595 C 232.473 72.243,229.058 75.753,227.913 76.645 C 227.542 76.934,227.288 77.220,227.348 77.280 C 227.541 77.474,231.641 73.500,233.166 71.641 C 235.049 69.347,235.292 69.030,235.165 69.030 C 235.108 69.030,234.493 69.734,233.800 70.595 M169.198 74.253 C 170.018 75.080,170.725 75.721,170.770 75.676 C 170.872 75.574,168.059 72.748,167.856 72.748 C 167.774 72.748,168.378 73.425,169.198 74.253 M171.296 76.075 C 171.296 76.139,171.819 76.629,172.458 77.164 C 173.097 77.700,173.620 78.085,173.620 78.021 C 173.620 77.957,173.097 77.467,172.458 76.932 C 171.819 76.397,171.296 76.011,171.296 76.075 M225.942 78.222 C 225.381 78.663,224.832 79.024,224.722 79.024 C 224.611 79.024,224.521 79.135,224.521 79.271 C 224.521 79.520,226.421 78.256,226.884 77.699 C 227.275 77.227,227.044 77.356,225.942 78.222 M222.545 80.564 C 222.162 80.890,222.057 81.051,222.313 80.921 C 223.007 80.568,223.740 79.968,223.475 79.969 C 223.347 79.970,222.929 80.237,222.545 80.564 M219.825 82.020 C 218.177 82.959,218.170 83.126,219.814 82.302 C 220.613 81.901,221.267 81.523,221.267 81.461 C 221.267 81.259,220.937 81.387,219.825 82.020 M152.179 103.360 C 152.467 103.415,152.937 103.415,153.225 103.360 C 153.512 103.304,153.277 103.259,152.702 103.259 C 152.127 103.259,151.891 103.304,152.179 103.360 M142.708 105.055 C 142.229 105.209,142.209 105.245,142.592 105.261 C 142.847 105.272,143.213 105.179,143.405 105.055 C 143.812 104.792,143.530 104.792,142.708 105.055 M288.437 106.136 C 288.884 106.491,289.904 107.422,290.703 108.204 C 291.502 108.986,292.156 109.556,292.156 109.469 C 292.156 109.220,289.333 106.599,288.437 106.017 L 287.623 105.489 288.437 106.136 M139.761 105.986 C 137.311 106.973,135.725 107.680,135.798 107.752 C 135.884 107.838,140.392 106.054,140.590 105.856 C 140.752 105.694,140.317 105.762,139.761 105.986 M132.539 109.372 C 131.740 109.825,131.087 110.249,131.087 110.315 C 131.087 110.444,133.613 109.068,133.980 108.739 C 134.389 108.373,133.999 108.544,132.539 109.372 M128.856 111.671 C 127.834 112.370,126.585 113.317,126.079 113.776 C 125.417 114.377,125.582 114.295,126.671 113.483 C 127.501 112.863,128.783 111.950,129.518 111.456 C 130.710 110.653,131.013 110.401,130.783 110.401 C 130.744 110.401,129.877 110.973,128.856 111.671 M123.987 115.572 L 123.068 116.560 124.056 115.641 C 124.974 114.787,125.150 114.585,124.975 114.585 C 124.937 114.585,124.492 115.029,123.987 115.572 M121.895 117.432 L 120.976 118.420 121.964 117.501 C 122.883 116.646,123.059 116.444,122.883 116.444 C 122.845 116.444,122.400 116.888,121.895 117.432 M120.036 119.479 C 119.530 119.998,119.274 120.355,119.465 120.272 C 119.793 120.132,121.245 118.536,121.046 118.536 C 120.996 118.536,120.541 118.960,120.036 119.479 M118.046 121.848 C 117.197 122.921,115.682 125.081,115.192 125.915 C 115.099 126.075,115.080 126.206,115.150 126.206 C 115.221 126.206,115.848 125.343,116.543 124.288 C 117.239 123.234,117.998 122.160,118.230 121.903 C 118.955 121.099,119.295 120.628,119.151 120.628 C 119.074 120.628,118.577 121.177,118.046 121.848 M295.382 122.204 C 295.305 122.666,295.340 122.882,295.469 122.753 C 295.586 122.636,295.643 122.293,295.595 121.991 C 295.522 121.526,295.489 121.558,295.382 122.204 M293.830 127.257 C 293.551 127.829,293.373 128.298,293.432 128.298 C 293.590 128.298,294.529 126.410,294.424 126.304 C 294.375 126.256,294.108 126.684,293.830 127.257 M113.763 128.356 L 113.394 129.111 113.868 128.530 C 114.324 127.970,114.473 127.600,114.242 127.600 C 114.181 127.600,113.966 127.940,113.763 128.356 M290.587 131.505 C 289.788 132.337,289.134 133.062,289.134 133.116 C 289.134 133.298,290.914 131.676,291.679 130.796 C 292.908 129.381,292.161 129.867,290.587 131.505 M111.834 132.237 C 111.698 132.627,111.637 132.946,111.697 132.946 C 111.854 132.946,112.293 131.739,112.177 131.624 C 112.125 131.571,111.970 131.847,111.834 132.237 M286.229 134.707 C 285.718 135.013,285.382 135.264,285.483 135.266 C 285.737 135.272,287.507 134.357,287.507 134.220 C 287.507 134.017,287.169 134.146,286.229 134.707 M281.348 136.200 L 280.651 136.377 281.276 136.405 C 281.620 136.420,281.966 136.328,282.045 136.200 C 282.124 136.072,282.157 135.980,282.117 135.995 C 282.078 136.010,281.732 136.102,281.348 136.200 M149.561 137.851 C 148.113 138.614,148.020 138.881,149.448 138.172 C 150.848 137.478,151.028 137.362,150.704 137.362 C 150.584 137.362,150.070 137.582,149.561 137.851 M147.240 139.275 C 146.216 140.014,144.499 141.775,143.893 142.708 C 143.405 143.460,143.423 143.451,144.136 142.592 C 145.151 141.367,146.102 140.425,147.240 139.515 C 148.294 138.673,148.294 138.514,147.240 139.275 M142.753 144.393 C 142.344 145.069,141.797 146.485,142.057 146.194 C 142.269 145.958,143.406 143.637,143.310 143.637 C 143.255 143.637,143.005 143.977,142.753 144.393 M107.903 148.170 C 107.905 148.681,107.953 148.863,108.009 148.574 C 108.064 148.285,108.062 147.866,108.004 147.644 C 107.946 147.422,107.900 147.658,107.903 148.170 M140.925 151.888 C 140.926 152.783,140.968 153.121,141.018 152.639 C 141.068 152.156,141.067 151.424,141.016 151.012 C 140.965 150.599,140.924 150.994,140.925 151.888 M107.908 155.723 C 107.908 156.299,107.953 156.534,108.008 156.246 C 108.064 155.959,108.064 155.488,108.008 155.200 C 107.953 154.913,107.908 155.148,107.908 155.723 M144.800 162.304 C 144.800 162.344,145.139 162.684,145.555 163.059 L 146.310 163.742 145.628 162.987 C 144.991 162.283,144.800 162.124,144.800 162.304 M148.421 165.283 C 148.575 165.532,150.389 166.481,150.500 166.370 C 150.543 166.327,150.063 166.018,149.434 165.683 C 148.806 165.348,148.350 165.168,148.421 165.283 M155.436 167.509 C 155.725 167.565,156.143 167.562,156.365 167.504 C 156.588 167.446,156.351 167.401,155.840 167.403 C 155.328 167.406,155.146 167.453,155.436 167.509 M248.637 167.741 C 248.926 167.797,249.345 167.795,249.567 167.737 C 249.789 167.679,249.553 167.633,249.041 167.636 C 248.530 167.638,248.348 167.686,248.637 167.741 M269.494 174.021 C 269.622 174.143,270.145 174.478,270.657 174.765 C 271.168 175.052,271.377 175.113,271.121 174.901 C 270.602 174.469,269.130 173.673,269.494 174.021 M113.864 175.596 C 114.256 176.354,114.578 176.774,114.576 176.525 C 114.575 176.397,114.360 176.031,114.099 175.712 C 113.783 175.326,113.704 175.287,113.864 175.596 M272.516 175.886 C 272.644 176.023,273.637 176.776,274.724 177.560 C 275.811 178.344,276.334 178.665,275.888 178.273 C 275.038 177.526,272.113 175.456,272.516 175.886 M115.072 177.673 C 115.340 178.129,115.605 178.501,115.659 178.501 C 115.825 178.501,115.070 177.147,114.818 176.991 C 114.689 176.911,114.803 177.218,115.072 177.673 M276.838 179.256 C 276.892 179.288,277.354 179.680,277.864 180.128 L 278.791 180.941 277.990 180.070 C 277.550 179.590,277.088 179.198,276.964 179.198 C 276.840 179.198,276.783 179.224,276.838 179.256 M116.676 180.070 C 116.980 180.485,117.265 180.825,117.309 180.825 C 117.486 180.825,116.910 179.953,116.528 179.644 C 116.277 179.440,116.333 179.602,116.676 180.070 M281.479 183.748 C 281.918 184.269,282.325 184.658,282.382 184.612 C 282.440 184.566,282.080 184.140,281.583 183.665 L 280.680 182.801 281.479 183.748 M119.465 183.532 C 119.465 183.657,119.805 184.067,120.221 184.442 L 120.976 185.125 120.279 184.313 C 119.895 183.866,119.555 183.456,119.524 183.402 C 119.492 183.348,119.465 183.407,119.465 183.532 M123.932 188.149 C 124.407 188.646,124.833 189.006,124.879 188.948 C 124.925 188.891,124.537 188.484,124.016 188.045 L 123.068 187.246 123.932 188.149 M126.089 189.980 C 126.601 190.438,127.115 190.814,127.232 190.816 C 127.349 190.818,127.402 190.787,127.348 190.748 C 127.295 190.709,126.781 190.333,126.206 189.912 L 125.160 189.148 126.089 189.980 M288.437 193.695 C 288.437 193.946,289.360 195.700,289.492 195.700 C 289.556 195.700,289.384 195.256,289.110 194.712 C 288.572 193.644,288.437 193.441,288.437 193.695 M152.182 200.513 C 152.471 200.569,152.889 200.567,153.111 200.508 C 153.334 200.450,153.097 200.405,152.586 200.407 C 152.074 200.410,151.893 200.457,152.182 200.513 M245.268 200.748 C 245.621 200.801,246.144 200.800,246.430 200.745 C 246.716 200.689,246.426 200.646,245.787 200.648 C 245.148 200.649,244.914 200.694,245.268 200.748 M293.841 212.318 C 293.844 212.830,293.891 213.012,293.947 212.722 C 294.003 212.433,294.001 212.015,293.942 211.793 C 293.884 211.571,293.839 211.807,293.841 212.318 M260.857 216.153 C 260.857 217.112,260.898 217.504,260.948 217.025 C 260.998 216.546,260.998 215.761,260.948 215.282 C 260.898 214.802,260.857 215.195,260.857 216.153 M293.841 220.221 C 293.844 220.732,293.891 220.914,293.947 220.625 C 294.003 220.336,294.001 219.917,293.942 219.695 C 293.884 219.473,293.839 219.709,293.841 220.221 M292.992 225.706 C 292.907 226.239,292.883 226.720,292.938 226.775 C 292.994 226.831,293.112 226.444,293.202 225.915 C 293.291 225.387,293.315 224.905,293.256 224.846 C 293.196 224.786,293.078 225.173,292.992 225.706 M256.132 227.270 C 255.128 228.299,254.784 228.744,255.319 228.322 C 256.446 227.435,258.348 225.368,257.945 225.468 C 257.906 225.478,257.090 226.289,256.132 227.270 M292.504 228.007 C 292.416 228.409,292.392 228.786,292.452 228.845 C 292.511 228.904,292.626 228.619,292.708 228.210 C 292.901 227.242,292.714 227.054,292.504 228.007 M253.225 229.577 C 252.714 229.914,251.668 230.426,250.901 230.713 C 250.134 231.001,249.691 231.242,249.918 231.249 C 250.475 231.265,253.086 230.053,253.806 229.444 C 254.591 228.779,254.352 228.834,253.225 229.577 M292.068 229.527 C 291.989 229.734,291.932 230.079,291.943 230.292 C 291.954 230.505,292.055 230.371,292.168 229.994 C 292.387 229.261,292.310 228.898,292.068 229.527 M290.799 233.479 C 290.650 233.805,290.533 234.198,290.538 234.351 C 290.543 234.505,290.701 234.275,290.890 233.840 C 291.287 232.925,291.203 232.592,290.799 233.479 M139.686 233.585 C 139.208 233.738,139.187 233.775,139.570 233.791 C 139.826 233.802,140.192 233.709,140.383 233.585 C 140.791 233.322,140.508 233.322,139.686 233.585 M136.739 234.516 C 134.290 235.503,132.704 236.210,132.776 236.282 C 132.862 236.368,137.370 234.584,137.569 234.386 C 137.731 234.223,137.295 234.292,136.739 234.516 M290.052 235.361 C 289.923 235.698,289.862 236.017,289.914 236.070 C 289.967 236.122,290.121 235.846,290.257 235.456 C 290.560 234.589,290.377 234.504,290.052 235.361 M129.518 237.902 C 128.719 238.355,128.065 238.779,128.065 238.845 C 128.065 238.974,130.591 237.598,130.959 237.269 C 131.368 236.903,130.978 237.074,129.518 237.902 M125.834 240.201 C 124.813 240.900,123.563 241.847,123.058 242.306 C 122.395 242.907,122.561 242.825,123.649 242.013 C 124.480 241.392,125.761 240.480,126.496 239.986 C 127.689 239.183,127.991 238.931,127.762 238.931 C 127.723 238.931,126.855 239.503,125.834 240.201 M287.623 240.325 C 287.425 240.709,287.315 241.023,287.379 241.023 C 287.443 241.023,287.658 240.709,287.856 240.325 C 288.054 239.942,288.164 239.628,288.100 239.628 C 288.036 239.628,287.822 239.942,287.623 240.325 M286.869 241.546 C 286.743 241.705,286.515 242.098,286.363 242.417 C 286.042 243.093,286.624 242.469,287.068 241.662 C 287.326 241.191,287.206 241.121,286.869 241.546 M120.965 244.102 L 120.046 245.090 121.034 244.171 C 121.953 243.317,122.129 243.114,121.953 243.114 C 121.915 243.114,121.471 243.559,120.965 244.102 M285.138 244.218 C 284.695 244.735,284.425 245.206,284.572 245.206 C 284.635 245.206,284.910 244.893,285.183 244.509 C 285.725 243.748,285.697 243.568,285.138 244.218 M118.873 245.962 L 117.955 246.949 118.942 246.031 C 119.486 245.525,119.930 245.081,119.930 245.043 C 119.930 244.867,119.728 245.043,118.873 245.962 M283.397 246.541 C 280.910 249.631,277.632 252.871,275.391 254.455 C 274.902 254.801,274.499 255.170,274.497 255.274 C 274.487 255.652,277.423 253.169,279.822 250.769 C 282.010 248.582,284.709 245.439,284.401 245.439 C 284.337 245.439,283.885 245.935,283.397 246.541 M117.014 248.009 C 116.509 248.528,116.252 248.885,116.444 248.802 C 116.771 248.662,118.224 247.066,118.025 247.066 C 117.974 247.066,117.519 247.490,117.014 248.009 M115.025 250.378 C 114.175 251.451,112.660 253.611,112.171 254.445 C 112.077 254.605,112.058 254.736,112.129 254.736 C 112.200 254.736,112.826 253.873,113.522 252.818 C 114.217 251.764,114.976 250.690,115.208 250.433 C 115.933 249.629,116.274 249.157,116.129 249.157 C 116.053 249.157,115.556 249.707,115.025 250.378 M273.401 256.035 L 272.748 256.638 273.504 256.136 C 274.196 255.676,274.421 255.433,274.156 255.433 C 274.099 255.433,273.759 255.704,273.401 256.035 M110.742 256.886 L 110.373 257.641 110.847 257.060 C 111.303 256.500,111.452 256.130,111.220 256.130 C 111.160 256.130,110.944 256.470,110.742 256.886 M269.146 258.706 L 268.565 259.180 269.320 258.811 C 269.736 258.608,270.076 258.393,270.076 258.332 C 270.076 258.101,269.705 258.250,269.146 258.706 M108.813 260.767 C 108.677 261.157,108.615 261.476,108.676 261.476 C 108.833 261.476,109.271 260.269,109.156 260.153 C 109.103 260.101,108.949 260.377,108.813 260.767 M258.919 263.219 C 258.344 263.527,257.978 263.779,258.106 263.779 C 258.234 263.779,258.809 263.527,259.384 263.219 C 259.959 262.911,260.325 262.659,260.198 262.659 C 260.070 262.659,259.494 262.911,258.919 263.219 M253.922 264.730 L 253.225 264.907 253.850 264.935 C 254.194 264.950,254.540 264.858,254.619 264.730 C 254.698 264.602,254.731 264.510,254.691 264.525 C 254.652 264.540,254.306 264.632,253.922 264.730 M146.539 266.381 C 145.092 267.144,144.998 267.411,146.426 266.702 C 147.826 266.008,148.006 265.892,147.682 265.892 C 147.563 265.892,147.049 266.112,146.539 266.381 M144.218 267.804 C 143.194 268.544,141.477 270.305,140.872 271.238 C 140.383 271.990,140.402 271.981,141.114 271.121 C 142.130 269.897,143.081 268.955,144.218 268.045 C 145.273 267.202,145.273 267.044,144.218 267.804 M139.732 272.923 C 139.322 273.599,138.775 275.015,139.035 274.724 C 139.247 274.487,140.384 272.167,140.288 272.167 C 140.234 272.167,139.983 272.507,139.732 272.923 M104.881 276.700 C 104.884 277.211,104.932 277.393,104.987 277.104 C 105.043 276.815,105.041 276.396,104.982 276.174 C 104.924 275.952,104.879 276.188,104.881 276.700 M137.903 280.418 C 137.904 281.313,137.946 281.651,137.996 281.169 C 138.047 280.686,138.046 279.954,137.995 279.542 C 137.943 279.129,137.902 279.524,137.903 280.418 M104.886 284.253 C 104.886 284.829,104.931 285.064,104.987 284.776 C 105.042 284.489,105.042 284.018,104.987 283.730 C 104.931 283.443,104.886 283.678,104.886 284.253 M141.778 290.834 C 141.778 290.874,142.118 291.214,142.533 291.589 L 143.289 292.272 142.606 291.517 C 141.970 290.812,141.778 290.654,141.778 290.834 M145.399 293.813 C 145.553 294.062,147.368 295.011,147.479 294.900 C 147.521 294.857,147.042 294.548,146.413 294.213 C 145.784 293.878,145.328 293.698,145.399 293.813 M152.414 296.039 C 152.703 296.094,153.122 296.092,153.344 296.034 C 153.566 295.976,153.329 295.931,152.818 295.933 C 152.307 295.936,152.125 295.983,152.414 296.039 M236.161 297.576 C 236.545 297.873,238.466 298.892,238.466 298.799 C 238.466 298.650,236.511 297.501,236.257 297.501 C 236.151 297.501,236.108 297.535,236.161 297.576 M238.698 298.981 C 238.698 299.044,239.012 299.320,239.396 299.593 C 239.779 299.866,240.093 300.037,240.093 299.974 C 240.093 299.910,239.779 299.634,239.396 299.361 C 239.012 299.088,238.698 298.917,238.698 298.981 M110.842 304.126 C 111.234 304.884,111.556 305.304,111.554 305.055 C 111.553 304.927,111.339 304.561,111.077 304.242 C 110.762 303.856,110.683 303.817,110.842 304.126 M112.050 306.203 C 112.319 306.658,112.583 307.031,112.638 307.031 C 112.803 307.031,112.049 305.676,111.797 305.521 C 111.668 305.441,111.782 305.748,112.050 306.203 M113.654 308.600 C 113.958 309.015,114.243 309.355,114.288 309.355 C 114.464 309.355,113.888 308.483,113.507 308.174 C 113.256 307.970,113.312 308.132,113.654 308.600 M116.444 312.062 C 116.444 312.187,116.784 312.597,117.199 312.972 L 117.955 313.655 117.257 312.843 C 116.874 312.396,116.534 311.986,116.502 311.932 C 116.470 311.878,116.444 311.937,116.444 312.062 M120.910 316.679 C 121.385 317.176,121.812 317.536,121.858 317.478 C 121.904 317.421,121.515 317.014,120.994 316.575 L 120.046 315.776 120.910 316.679 M245.322 316.560 C 245.234 316.962,245.210 317.339,245.270 317.398 C 245.329 317.458,245.444 317.172,245.526 316.764 C 245.608 316.355,245.631 315.978,245.579 315.925 C 245.526 315.873,245.411 316.158,245.322 316.560 M123.068 318.510 C 123.579 318.968,124.094 319.344,124.211 319.346 C 124.328 319.348,124.380 319.317,124.327 319.278 C 124.274 319.239,123.759 318.863,123.184 318.442 L 122.138 317.678 123.068 318.510 M242.519 322.527 C 242.161 322.996,241.987 323.307,242.132 323.217 C 242.429 323.033,243.436 321.673,243.274 321.673 C 243.217 321.673,242.877 322.057,242.519 322.527 M240.767 324.420 C 240.329 324.908,239.764 325.423,239.511 325.565 C 239.258 325.706,239.111 325.883,239.185 325.956 C 239.259 326.030,239.938 325.520,240.694 324.822 C 241.450 324.125,241.955 323.549,241.816 323.543 C 241.677 323.538,241.205 323.932,240.767 324.420 M233.004 328.646 C 232.412 328.901,233.023 328.901,233.818 328.646 C 234.285 328.497,234.307 328.459,233.934 328.453 C 233.678 328.449,233.260 328.536,233.004 328.646 M217.535 402.939 C 217.407 403.277,217.236 403.659,217.156 403.788 C 217.077 403.917,217.122 403.955,217.257 403.871 C 217.513 403.713,218.071 402.324,217.879 402.324 C 217.818 402.324,217.664 402.601,217.535 402.939 M215.515 405.760 C 213.811 407.593,213.612 407.972,215.126 406.498 C 216.071 405.579,217.240 404.171,217.041 404.191 C 217.000 404.195,216.314 404.901,215.515 405.760 M183.614 405.093 C 183.614 405.377,186.172 407.675,187.080 408.206 C 188.217 408.871,187.916 408.526,186.523 407.567 C 185.822 407.084,184.881 406.282,184.432 405.784 C 183.982 405.287,183.614 404.976,183.614 405.093 M212.989 407.942 C 211.924 408.743,211.791 408.934,212.627 408.458 C 213.345 408.050,214.032 407.438,213.773 407.438 C 213.710 407.438,213.358 407.665,212.989 407.942 M207.708 410.386 C 207.090 410.575,206.628 410.773,206.681 410.826 C 206.798 410.943,209.181 410.253,209.181 410.101 C 209.181 409.955,209.009 409.989,207.708 410.386 M202.499 411.549 C 202.722 411.607,203.088 411.607,203.312 411.549 C 203.536 411.490,203.353 411.443,202.905 411.443 C 202.458 411.443,202.275 411.490,202.499 411.549 " stroke="none" fill="#44d4e4" fill-rule="evenodd"></path><path id="path2" d="" stroke="none" fill="#48d4ec" fill-rule="evenodd"></path><path id="path3" d="" stroke="none" fill="#48d4ec" fill-rule="evenodd"></path><path id="path4" d="" stroke="none" fill="#48d4ec" fill-rule="evenodd"></path></g></svg>